<svg xmlns="http://www.w3.org/2000/svg" viewBox="0 0 24 24" fill="currentColor">
  <path d="M13.89 4.014a.527.527 0 0 0-.244.137.497.497 0 0 0-.083.588c.023.047.46.488 3.38 3.408l3.352 3.354h-8.93c-7.955 0-8.936.002-8.984.014a.509.509 0 0 0-.367.373.67.67 0 0 0 .016.28.51.51 0 0 0 .362.317c.053.012 1.276.014 8.982.014h8.92l-3.352 3.353c-3.626 3.628-3.383 3.38-3.424 3.518a.494.494 0 0 0 .26.575.479.479 0 0 0 .444 0l.077-.038 3.806-3.806c3.523-3.523 3.808-3.81 3.835-3.865a.49.49 0 0 0 .056-.236.49.49 0 0 0-.056-.236c-.027-.054-.312-.342-3.835-3.865-3.62-3.62-3.81-3.807-3.87-3.84a.507.507 0 0 0-.345-.045z"/>
</svg>
