<svg xmlns="http://www.w3.org/2000/svg" viewBox="0 0 24 24" fill="currentColor">
  <path d="M2.38 4.01a.52.52 0 0 0-.32.26.44.44 0 0 0-.06.23.5.5 0 0 0 .4.49h.7c.69 0 .75.01.89.05.32.1.58.35.68.67l.83 5.37.85 5.41A2 2 0 0 0 8.48 18l.34.01a.56.56 0 0 1-.1.02 2.04 2.04 0 0 0-.45.12 2 2 0 0 0-1.25 1.55 2.82 2.82 0 0 0 0 .62 2 2 0 0 0 2.24 1.67 2 2 0 0 0 1.67-1.48c.05-.18.06-.3.06-.5s-.01-.33-.06-.5a2 2 0 0 0-1.68-1.48.23.23 0 0 1-.07-.02 360.1 360.1 0 0 1 3.32 0h3.32a.74.74 0 0 1-.12.02 1.98 1.98 0 0 0-1.14.59 1.98 1.98 0 0 0-.49.86 1.57 1.57 0 0 0-.06.53c0 .26 0 .33.06.53a2 2 0 0 0 1.67 1.45c.16.02.46.02.6-.01a2 2 0 0 0 1.52-1.24c.15-.38.18-.85.07-1.26a2 2 0 0 0-1.7-1.46h-.05c0-.01.32-.02.95-.02h.96l.06-.02a.5.5 0 0 0 .34-.39.5.5 0 0 0-.35-.56c-.05-.02-.22-.02-5.03-.02H8.12l-.08-.03a1.01 1.01 0 0 1-.7-.67 12.23 12.23 0 0 1-.14-.79l4.93-.01c4.57 0 4.93 0 5.01-.02a2 2 0 0 0 1.09-.54 1.98 1.98 0 0 0 .5-.77 682.89 682.89 0 0 0 1.35-4.97.97.97 0 0 0-.1-.65 1 1 0 0 0-.65-.53L19.25 8H6.05l-.19-1.17a84.06 84.06 0 0 0-.2-1.27 2.05 2.05 0 0 0-.36-.78 2.03 2.03 0 0 0-1.1-.72C3.97 4 4 4 3.17 4l-.8.01Z"/>
</svg>
