<svg xmlns="http://www.w3.org/2000/svg" viewBox="0 0 24 24" fill="currentColor">
  <path d="M4.391 8.512a.53.53 0 0 0-.327.241.508.508 0 0 0-.005.484c.03.06.247.278 3.834 3.866l3.801 3.802.075.036c.095.046.158.06.26.054a.468.468 0 0 0 .241-.076c.034-.022 1.263-1.245 3.843-3.825 3.579-3.58 3.794-3.796 3.824-3.857a.484.484 0 0 0 .043-.361.433.433 0 0 0-.131-.228.506.506 0 0 0-.355-.15.63.63 0 0 0-.233.061c-.037.02-.811.788-3.655 3.63l-3.608 3.607-3.608-3.607C5.546 9.347 4.773 8.58 4.736 8.56a.613.613 0 0 0-.238-.06.648.648 0 0 0-.107.013Z"/>
</svg>
