<svg xmlns="http://www.w3.org/2000/svg" viewBox="0 0 19.184 19.184" fill="currentColor">
  <path d="M5.62.07a7 7 0 0 0-2.33.45 4.9 4.9 0 0 0-2.8 2.8 7.05 7.05 0 0 0-.44 2.34C.01 6.68 0 7 0 9.6s.02 2.93.07 3.96a7.01 7.01 0 0 0 .45 2.32 4.9 4.9 0 0 0 2.8 2.8 7.04 7.04 0 0 0 2.34.44c1.02.05 1.35.06 3.95.05s2.93-.01 3.96-.06a7.02 7.02 0 0 0 2.32-.45 4.9 4.9 0 0 0 2.8-2.81 7.02 7.02 0 0 0 .44-2.33c.05-1.02.06-1.35.05-3.95s-.01-2.94-.06-3.96a7 7 0 0 0-.45-2.33 4.7 4.7 0 0 0-1.11-1.7 4.68 4.68 0 0 0-1.7-1.1 7.02 7.02 0 0 0-2.33-.44C12.51.01 12.18 0 9.57 0S6.64.02 5.62.07m.11 17.34a5.32 5.32 0 0 1-1.78-.33 2.99 2.99 0 0 1-1.1-.71 2.95 2.95 0 0 1-.72-1.1 5.31 5.31 0 0 1-.33-1.78c-.05-1.01-.06-1.32-.06-3.88s0-2.86.05-3.87a5.3 5.3 0 0 1 .31-1.79 3.17 3.17 0 0 1 1.82-1.82A5.31 5.31 0 0 1 5.7 1.8c1.01-.05 1.32-.06 3.88-.07s2.86 0 3.87.05a5.3 5.3 0 0 1 1.78.33 3.18 3.18 0 0 1 1.83 1.82 5.29 5.29 0 0 1 .33 1.78c.05 1 .06 1.31.06 3.87s0 2.87-.05 3.88a5.33 5.33 0 0 1-.32 1.78 3.18 3.18 0 0 1-1.82 1.82 5.31 5.31 0 0 1-1.78.34c-1.01.05-1.31.06-3.88.06s-2.86 0-3.87-.05m7.82-12.94A1.15 1.15 0 1 0 14.7 3.3a1.15 1.15 0 0 0-1.15 1.16M4.67 9.6a4.92 4.92 0 1 0 4.91-4.93A4.92 4.92 0 0 0 4.67 9.6m1.72 0a3.2 3.2 0 1 1 3.2 3.19 3.2 3.2 0 0 1-3.2-3.2"/>
</svg>
