<svg xmlns="http://www.w3.org/2000/svg" viewBox="0 0 15.08 17.73" fill="currentColor">
  <path d="M2.43 16.79A5.64 5.64 0 0 1 0 12.12a5.54 5.54 0 0 1 5.47-5.6 5.38 5.38 0 0 1 .76.05v3.1a2.46 2.46 0 0 0-.76-.12 2.54 2.54 0 0 0-2.5 2.57 2.57 2.57 0 0 0 1.37 2.29 2.5 2.5 0 0 0 1.64.99 2.5 2.5 0 0 1-1.64-1 2.44 2.44 0 0 0 1.13.28 2.54 2.54 0 0 0 2.5-2.55V0h2.98v.39l.05.35a4.25 4.25 0 0 0 1.89 2.87 4.06 4.06 0 0 0 2.19.64v3.03a6.96 6.96 0 0 1-4.13-1.35v6.2a5.54 5.54 0 0 1-5.47 5.6 5.36 5.36 0 0 1-3.05-.94z"/>
</svg>
